<svg xmlns="http://www.w3.org/2000/svg" xmlns:xlink="http://www.w3.org/1999/xlink" width="34" height="26" viewBox="0 0 34 26">
    <defs>
        <path id="a" d="M31 20.5a2.5 2.5 0 1 1 0 5H3a2.5 2.5 0 1 1 0-5h28zm0-10a2.5 2.5 0 1 1 0 5H3a2.5 2.5 0 1 1 0-5h28zm0-10a2.5 2.5 0 1 1 0 5H3a2.5 2.5 0 0 1 0-5h28z"/>
    </defs>
    <g fill="none" fill-rule="evenodd">
        <mask id="b" fill="#fff">
            <use xlink:href="#a"/>
        </mask>
        <use fill="#E53935" fill-rule="nonzero" xlink:href="#a"/>
        <g fill="#0A0B0F" mask="url(#b)">
            <path d="M0-1h34v28H0z"/>
        </g>
    </g>
</svg>
