<svg xmlns="http://www.w3.org/2000/svg" width="16" height="16" viewBox="0 0 16 16">
    <path fill="#111" fill-rule="nonzero" d="M10.966 11.736h.014C13.764 11.217 16 9.957 16 8c0-1.808-1.911-3.009-4.393-3.589C11.027 1.917 9.812 0 8 0 5.374 0 4 4.024 4 8c0 .474.021.948.06 1.417C2.751 8.982 2 8.4 2 8c0-.2.243-.5.634-.764a1 1 0 1 0-1.129-1.65A2.922 2.922 0 0 0 0 8c0 1.808 1.909 3.023 4.4 3.6C4.977 14.091 6.192 16 8 16a2.923 2.923 0 0 0 2.414-1.5 1 1 0 0 0-1.651-1.129C8.5 13.757 8.2 14 8 14c-.4 0-.982-.751-1.417-2.06.469.039.943.06 1.417.06.995.002 1.987-.087 2.966-.264zM14 8c0 .4-.752.982-2.062 1.418C11.977 8.953 12 8.48 12 8s-.021-.948-.06-1.417C13.249 7.018 14 7.6 14 8zM8 2c.4 0 .986.756 1.421 2.073a17.265 17.265 0 0 0-2.84-.006C7.016 2.754 7.6 2 8 2zM6 8a14.3 14.3 0 0 1 .129-1.869C6.749 6.047 7.374 6.004 8 6c.626.002 1.25.045 1.871.129.084.62.127 1.245.129 1.871-.003.626-.047 1.25-.131 1.871A14.3 14.3 0 0 1 8 10a14.32 14.32 0 0 1-1.871-.129A14.32 14.32 0 0 1 6 8z"/>
</svg>
